<?xml version="1.0" encoding="iso-8859-1"?>
<!-- Generator: Adobe Illustrator 19.0.0, SVG Export Plug-In . SVG Version: 6.00 Build 0)  -->
<svg version="1.1" id="Layer_1" xmlns="http://www.w3.org/2000/svg" xmlns:xlink="http://www.w3.org/1999/xlink" x="0px" y="0px"
	 viewBox="0 0 512 512" style="enable-background:new 0 0 512 512;" xml:space="preserve">
<circle style="fill:#FF8E31;" cx="256" cy="256" r="256"/>
<path style="fill:#ED7425;" d="M511.818,263.219L372.915,124.342H139.08v254.907l132.273,132.252
	C403.205,503.693,508.124,396.14,511.818,263.219z"/>
<g>
	<rect x="159.155" y="379.238" style="fill:#283A4D;" width="25.267" height="8.42"/>
	<rect x="327.578" y="379.238" style="fill:#283A4D;" width="25.27" height="8.42"/>
</g>
<rect x="139.085" y="124.342" style="fill:#34495E;" width="233.83" height="254.899"/>
<rect x="159.155" y="142.31" style="fill:#283A4D;" width="193.715" height="218.957"/>
<rect x="162.509" y="145.436" style="fill:#5D6D7E;" width="186.957" height="212.71"/>
<rect x="150.725" y="176.602" style="fill:#283A4D;" width="20.214" height="20.219"/>
<rect x="160.832" y="182.221" style="fill:#FFFFFF;" width="21.332" height="8.993"/>
<rect x="150.725" y="306.765" style="fill:#283A4D;" width="20.214" height="20.214"/>
<g>
	<rect x="160.832" y="312.371" style="fill:#FFFFFF;" width="21.332" height="8.983"/>
	<circle style="fill:#FFFFFF;" cx="310.554" cy="251.802" r="18.903"/>
</g>
<path style="fill:#34495E;" d="M305.147,250.186v52.419c0,1.385,0.527,2.767,1.579,3.82c1.055,1.055,2.445,1.58,3.82,1.58
	c1.385,0,2.767-0.525,3.822-1.58c1.052-1.052,1.572-2.435,1.572-3.82v-52.419H305.147z"/>
<circle style="fill:#283A4D;" cx="310.554" cy="251.802" r="10.714"/>
<circle style="fill:#FFFFFF;" cx="228.48" cy="251.802" r="35.814"/>
<circle style="fill:#283A4D;" cx="228.48" cy="251.802" r="25.585"/>
<circle style="fill:#34495E;" cx="228.48" cy="251.802" r="15.35"/>
<path style="fill:#5D6D7E;" d="M213.125,251.791c0,8.479,6.868,15.355,15.35,15.355v-30.702
	C219.994,236.444,213.125,243.313,213.125,251.791z"/>
<g>
	<rect x="227.968" y="227.046" style="fill:#FFFFFF;" width="1.019" height="5.117"/>
	
		<rect x="212.288" y="233.547" transform="matrix(0.7077 -0.7065 0.7065 0.7077 -104.6104 219.3561)" style="fill:#FFFFFF;" width="1.021" height="5.117"/>
	<rect x="203.725" y="251.264" style="fill:#FFFFFF;" width="5.112" height="1.024"/>
	
		<rect x="212.251" y="264.935" transform="matrix(-0.7077 -0.7065 0.7065 -0.7077 174.348 607.1199)" style="fill:#FFFFFF;" width="1.021" height="5.12"/>
	<rect x="227.968" y="271.437" style="fill:#FFFFFF;" width="1.019" height="5.105"/>
	
		<rect x="243.664" y="264.914" transform="matrix(-0.7077 0.7065 -0.7065 -0.7077 605.9507 284.2539)" style="fill:#FFFFFF;" width="1.021" height="5.117"/>
	<rect x="248.115" y="251.264" style="fill:#FFFFFF;" width="5.117" height="1.024"/>
	
		<rect x="243.661" y="233.536" transform="matrix(0.7077 0.7065 -0.7065 0.7077 238.1713 -103.5006)" style="fill:#FFFFFF;" width="1.021" height="5.115"/>
</g>
<g>
</g>
<g>
</g>
<g>
</g>
<g>
</g>
<g>
</g>
<g>
</g>
<g>
</g>
<g>
</g>
<g>
</g>
<g>
</g>
<g>
</g>
<g>
</g>
<g>
</g>
<g>
</g>
<g>
</g>
</svg>
